<?xml version="1.0" encoding="utf-8"?>
<!-- Generator: Adobe Illustrator 25.2.2, SVG Export Plug-In . SVG Version: 6.00 Build 0)  -->
<svg version="1.1" id="Ebene_1" xmlns="http://www.w3.org/2000/svg" xmlns:xlink="http://www.w3.org/1999/xlink" x="0px" y="0px"
	 viewBox="0 0 100 125" style="enable-background:new 0 0 100 125;" xml:space="preserve">
<style type="text/css">
	.st0{fill:#FFFFFF;}
</style>
<circle class="st0" cx="50.1" cy="69.2" r="40.8"/>
<g>
	<path d="M52.8,46.3c0-2.7,2.2-4.9,4.9-4.9c2.7,0,4.9,2.2,4.9,4.9c0,2.7-2.2,4.9-4.9,4.9C55,51.2,52.8,49,52.8,46.3z"/>
</g>
<g>
	<path d="M77.8,59.9l-10-10c-0.7-0.7-1.4-1-2.4-1c-1,0-1.9,0.3-2.5,1L47.6,64.6c-0.5,0.5-0.8,1.2-0.8,1.8h-2.7v1.3h3
		c0.1,0.2,0.2,0.3,0.4,0.5c0,0,0.1,0.1,0.1,0.1v4.2H46v15.5c-0.9-0.1-1.9-0.3-2.8-1.1c-0.5-0.4-0.9-0.8-1.3-1.2
		c-1-1-2.1-2.1-4.1-2.6c-1-0.3-1.8-0.3-2.5-0.2v-1.7h5.5v-1.5H38v-19c0-0.4-0.4-0.8-0.8-0.8h-3v-3.5l4.8-2.1h7.9
		c0.5,0,0.9-0.4,0.9-0.9s-0.4-0.9-0.9-0.9h-8.1c-0.1,0-0.3,0-0.4,0.1l-4.9,2.1l-4.9-2.1c-0.1-0.1-0.2-0.1-0.4-0.1H20
		c-0.5,0-0.9,0.4-0.9,0.9c0,0.5,0.4,0.9,0.9,0.9h7.9l4.8,2v3.5h-3.2c-0.4,0-0.8,0.4-0.8,0.8v13.4H26v1.5h2.8v4.2
		c0,0.4,0.4,0.8,0.8,0.8c0.4,0,0.8-0.4,0.8-0.8v-4.2h1.3v14.7c0,0.8,0.8,1.5,1.8,1.5c1,0,1.8-0.7,1.8-1.5v-6.5
		c0.6-0.1,1.4-0.1,2.2,0.2c1.8,0.5,2.7,1.4,3.7,2.4c0.4,0.4,0.9,0.9,1.4,1.3c1.2,0.9,2.4,1.2,3.4,1.3v1h-2.9v1.3h10.1v-1.3h-2.9
		V72.4h-1.6v-3.5c0.2,0,0.4,0.1,0.6,0.1c0.6,0,1.3-0.2,1.8-0.7l11.6-11.2l8.2,9.7v21.1c0,1.1,0.4,2,1.1,2.7c0.7,0.7,1.6,1.1,2.7,1.1
		c1,0,1.9-0.4,2.6-1.1c0.7-0.7,1.1-1.6,1.1-2.7V61.5C78.4,60.9,78.2,60.4,77.8,59.9z M32.7,65.7c-0.6,0.2-1.1,0.8-1.1,1.4v7h-1.3
		v-9.8h2.4C32.7,64.3,32.7,65.7,32.7,65.7z M32.7,62.9h-2.4v-1.5h2.4V62.9z M34.1,61.4h2.2v1.5h-2.2V61.4z M34.1,65.7v-1.4h2.2v15.3
		h-1.1V67.1C35.2,66.4,34.8,65.9,34.1,65.7z"/>
</g>
</svg>
